REM DIRINDEX 1\2,1\3,1\4,1\5\6,1\5\7,1\8
REM DIRNAME folder01,folder02,folder03,folder04,folder05,folder06,folder07,folder08
TITLE ""
FILE "158 Åy158ÅzUnit9 (1789 in moderation_1800 spell out).mp3" MP3
  TRACK 01 AUDIO
    TITLE "0:"
    INDEX 01 00:00:00
  TRACK 02 AUDIO
    TITLE "2:cjc115_6172"
    INDEX 01 00:00:07
  TRACK 03 AUDIO
    TITLE "0:"
    INDEX 01 00:01:52
  TRACK 04 AUDIO
    TITLE "3:cjc115_6173"
    INDEX 01 00:01:60
  TRACK 05 AUDIO
    TITLE "0:"
    INDEX 01 00:03:64
  TRACK 06 AUDIO
    TITLE "4:cjc115_6174"
    INDEX 01 00:03:72
  TRACK 07 AUDIO
    TITLE "0:"
    INDEX 01 00:08:09
  TRACK 08 AUDIO
    TITLE "2:cjc115_6175"
    INDEX 01 00:09:18
  TRACK 09 AUDIO
    TITLE "0:"
    INDEX 01 00:10:43
  TRACK 10 AUDIO
    TITLE "3:cjc115_6176"
    INDEX 01 00:10:49
  TRACK 11 AUDIO
    TITLE "0:"
    INDEX 01 00:13:00
  TRACK 12 AUDIO
    TITLE "4:cjc115_6177"
    INDEX 01 00:13:06
  TRACK 13 AUDIO
    TITLE "0:"
    INDEX 01 00:17:33
  TRACK 14 AUDIO
    TITLE "2:cjc115_6178"
    INDEX 01 00:18:42
  TRACK 15 AUDIO
    TITLE "0:"
    INDEX 01 00:20:06
  TRACK 16 AUDIO
    TITLE "3:cjc115_6179"
    INDEX 01 00:20:12
  TRACK 17 AUDIO
    TITLE "0:"
    INDEX 01 00:22:13
  TRACK 18 AUDIO
    TITLE "4:cjc115_6180"
    INDEX 01 00:22:21
  TRACK 19 AUDIO
    TITLE "0:"
    INDEX 01 00:26:24
  TRACK 20 AUDIO
    TITLE "2:cjc115_6181"
    INDEX 01 00:27:34
  TRACK 21 AUDIO
    TITLE "0:"
    INDEX 01 00:29:36
  TRACK 22 AUDIO
    TITLE "3:cjc115_6182"
    INDEX 01 00:29:46
  TRACK 23 AUDIO
    TITLE "0:"
    INDEX 01 00:30:73
  TRACK 24 AUDIO
    TITLE "4:cjc115_6183"
    INDEX 01 00:31:08
  TRACK 25 AUDIO
    TITLE "0:"
    INDEX 01 00:36:21
  TRACK 26 AUDIO
    TITLE "2:cjc115_6184"
    INDEX 01 00:37:34
  TRACK 27 AUDIO
    TITLE "0:"
    INDEX 01 00:38:55
  TRACK 28 AUDIO
    TITLE "3:cjc115_6185"
    INDEX 01 00:38:65
  TRACK 29 AUDIO
    TITLE "0:"
    INDEX 01 00:41:49
  TRACK 30 AUDIO
    TITLE "4:cjc115_6186"
    INDEX 01 00:41:59
  TRACK 31 AUDIO
    TITLE "0:"
    INDEX 01 00:45:35
  TRACK 32 AUDIO
    TITLE "2:cjc115_6187"
    INDEX 01 00:46:43
  TRACK 33 AUDIO
    TITLE "0:"
    INDEX 01 00:49:70
  TRACK 34 AUDIO
    TITLE "3:cjc115_6188"
    INDEX 01 00:50:05
  TRACK 35 AUDIO
    TITLE "0:"
    INDEX 01 00:52:36
  TRACK 36 AUDIO
    TITLE "4:cjc115_6189"
    INDEX 01 00:52:43
  TRACK 37 AUDIO
    TITLE "0:"
    INDEX 01 00:57:60
  TRACK 38 AUDIO
    TITLE "2:cjc115_6190"
    INDEX 01 00:58:69
  TRACK 39 AUDIO
    TITLE "0:"
    INDEX 01 01:00:13
  TRACK 40 AUDIO
    TITLE "3:cjc115_6191"
    INDEX 01 01:00:29
  TRACK 41 AUDIO
    TITLE "0:"
    INDEX 01 01:03:18
  TRACK 42 AUDIO
    TITLE "4:cjc115_6192"
    INDEX 01 01:03:24
  TRACK 43 AUDIO
    TITLE "0:"
    INDEX 01 01:07:45
  TRACK 44 AUDIO
    TITLE "2:cjc115_6193"
    INDEX 01 01:08:54
  TRACK 45 AUDIO
    TITLE "0:"
    INDEX 01 01:09:73
  TRACK 46 AUDIO
    TITLE "3:cjc115_6194"
    INDEX 01 01:10:08
  TRACK 47 AUDIO
    TITLE "0:"
    INDEX 01 01:13:51
  TRACK 48 AUDIO
    TITLE "4:cjc115_6195"
    INDEX 01 01:13:59
  TRACK 49 AUDIO
    TITLE "0:"
    INDEX 01 01:17:33
  TRACK 50 AUDIO
    TITLE "2:cjc115_6196"
    INDEX 01 01:18:41
  TRACK 51 AUDIO
    TITLE "0:"
    INDEX 01 01:20:06
  TRACK 52 AUDIO
    TITLE "3:cjc115_6197"
    INDEX 01 01:20:16
  TRACK 53 AUDIO
    TITLE "0:"
    INDEX 01 01:22:39
  TRACK 54 AUDIO
    TITLE "4:cjc115_6198"
    INDEX 01 01:22:46
  TRACK 55 AUDIO
    TITLE "0:"
    INDEX 01 01:26:21
  TRACK 56 AUDIO
    TITLE "2:cjc115_6199"
    INDEX 01 01:27:32
  TRACK 57 AUDIO
    TITLE "0:"
    INDEX 01 01:28:67
  TRACK 58 AUDIO
    TITLE "3:cjc115_6200"
    INDEX 01 01:29:01
  TRACK 59 AUDIO
    TITLE "0:"
    INDEX 01 01:30:40
  TRACK 60 AUDIO
    TITLE "4:cjc115_6201"
    INDEX 01 01:30:52
  TRACK 61 AUDIO
    TITLE "0:"
    INDEX 01 01:33:48
  TRACK 62 AUDIO
    TITLE "2:cjc115_6202"
    INDEX 01 01:34:54
  TRACK 63 AUDIO
    TITLE "0:"
    INDEX 01 01:36:01
  TRACK 64 AUDIO
    TITLE "3:cjc115_6203"
    INDEX 01 01:36:09
  TRACK 65 AUDIO
    TITLE "0:"
    INDEX 01 01:38:51
  TRACK 66 AUDIO
    TITLE "4:cjc115_6204"
    INDEX 01 01:38:61
  TRACK 67 AUDIO
    TITLE "0:"
    INDEX 01 01:42:10
  TRACK 68 AUDIO
    TITLE "2:cjc115_6205"
    INDEX 01 01:43:21
  TRACK 69 AUDIO
    TITLE "0:"
    INDEX 01 01:44:48
  TRACK 70 AUDIO
    TITLE "3:cjc115_6206"
    INDEX 01 01:44:60
  TRACK 71 AUDIO
    TITLE "0:"
    INDEX 01 01:47:09
  TRACK 72 AUDIO
    TITLE "4:cjc115_6207"
    INDEX 01 01:47:13
  TRACK 73 AUDIO
    TITLE "0:"
    INDEX 01 01:50:09
